<svg  viewBox="0 0 500 500" width="500.0px" height="500.0px" xmlns="http://www.w3.org/2000/svg"><defs><path transform="translate(250,250) " id="hex-mask"  d="M0,150L0.0,150.0L-130.0,75.0L-130.0,-75.0L-1.0,-150.0L129.0,-76.0L129.0,75.0" /><rect width="500" height="500" id="bg-rect"  /><mask id="mask"  ><use fill="white"  href="#bg-rect" /><use fill="black"  href="#hex-mask" /></mask><path fill="black" opacity="0.2" id="shade-path-l0"  d="M0,0L866.0,500.0V500H0z" /><path fill="black" opacity="0.2" id="shade-path-l1"  d="M0,65L866.0,565.0V565H0z" /><path fill="black" opacity="0.2" id="shade-path-l2"  d="M0,130L866.0,630.0V630H0z" /><path fill="black" opacity="0.2" id="shade-path-l3"  d="M0,195L866.0,695.0V695H0z" /></defs><use fill="#73B8FC"  href="#bg-rect" /><use  href="#shade-path-l0" ><animate keySplines="0 1 0.79 0.99 ;" attributeName="y" attributeType="XML" dur="3" values="300;0" fill="freeze" /></use><use transform="scale(-1,1) translate(-500,0) "  href="#shade-path-l0" ><animate keySplines="0 1 0.79 0.99 ;" attributeName="y" attributeType="XML" dur="3" values="300;0" fill="freeze" /></use><use  href="#shade-path-l1" ><animate keySplines="0 1 0.79 0.99 ;" attributeName="y" attributeType="XML" dur="5" values="300;0" fill="freeze" /></use><use transform="scale(-1,1) translate(-500,0) "  href="#shade-path-l1" ><animate keySplines="0 1 0.79 0.99 ;" attributeName="y" attributeType="XML" dur="5" values="300;0" fill="freeze" /></use><use  href="#shade-path-l2" ><animate keySplines="0 1 0.79 0.99 ;" attributeName="y" attributeType="XML" dur="7" values="300;0" fill="freeze" /></use><use transform="scale(-1,1) translate(-500,0) "  href="#shade-path-l2" ><animate keySplines="0 1 0.79 0.99 ;" attributeName="y" attributeType="XML" dur="7" values="300;0" fill="freeze" /></use><use  href="#shade-path-l3" ><animate keySplines="0 1 0.79 0.99 ;" attributeName="y" attributeType="XML" dur="9" values="300;0" fill="freeze" /></use><use transform="scale(-1,1) translate(-500,0) "  href="#shade-path-l3" ><animate keySplines="0 1 0.79 0.99 ;" attributeName="y" attributeType="XML" dur="9" values="300;0" fill="freeze" /></use><use mask="url('#mask')" fill="white"  href="#bg-rect" /><g  ><path fill="black"  d="M327.9422863405995,295.0L327.9,295.0L324.6,300.3L320.9,305.4L316.9,310.2L312.5,314.7L307.9,318.9L302.9,322.8L297.7,326.3L292.3,329.5L286.6,332.2L280.8,334.6L274.8,336.5L268.7,338.0L262.5,339.1L256.3,339.8L250.0,340.0L243.7,339.8L237.5,339.1L231.3,338.0L225.2,336.5L219.2,334.6L213.4,332.2L207.7,329.5L202.3,326.3L197.1,322.8L192.1,318.9L187.5,314.7L183.1,310.2L179.1,305.4L175.4,300.3L172.1,295.0L169.1,289.5L166.6,283.7L164.4,277.8L162.7,271.8L161.4,265.6L160.5,259.4L160.1,253.1L160.1,246.9L160.5,240.6L161.4,234.4L162.7,228.2L164.4,222.2L166.6,216.3L169.1,210.5L172.1,205.0L175.4,199.7L179.1,194.6L183.1,189.8L187.5,185.3L192.1,181.1L197.1,177.2L202.3,173.7L207.7,170.5L213.4,167.8L219.2,165.4L225.2,163.5L231.3,162.0L237.5,160.9L243.7,160.2L250.0,160.0L256.3,160.2L262.5,160.9L268.7,162.0L274.8,163.5L280.8,165.4L286.6,167.8L292.3,170.5L297.7,173.7L302.9,177.2L307.9,181.1L312.5,185.3L316.9,189.8L320.9,194.6L324.6,199.7L327.9,205.0L349.6,192.5L349.6,192.5L345.3,185.7L340.6,179.2L335.5,173.0L329.9,167.3L323.9,161.9L317.6,157.0L310.9,152.5L304.0,148.5L296.8,144.9L289.3,141.9L281.7,139.5L273.9,137.5L266.0,136.1L258.0,135.3L250.0,135.0L242.0,135.3L234.0,136.1L226.1,137.5L218.3,139.5L210.7,141.9L203.2,144.9L196.0,148.5L189.1,152.5L182.4,157.0L176.1,161.9L170.1,167.3L164.5,173.0L159.4,179.2L154.7,185.7L150.4,192.5L146.6,199.6L143.4,206.9L140.6,214.5L138.4,222.2L136.7,230.0L135.6,238.0L135.1,246.0L135.1,254.0L135.6,262.0L136.7,270.0L138.4,277.8L140.6,285.5L143.4,293.1L146.6,300.4L150.4,307.5L154.7,314.3L159.4,320.8L164.5,327.0L170.1,332.7L176.1,338.1L182.4,343.0L189.1,347.5L196.0,351.5L203.2,355.1L210.7,358.1L218.3,360.5L226.1,362.5L234.0,363.9L242.0,364.7L250.0,365.0L258.0,364.7L266.0,363.9L273.9,362.5L281.7,360.5L289.3,358.1L296.8,355.1L304.0,351.5L310.9,347.5L317.6,343.0L323.9,338.1L329.9,332.7L335.5,327.0L340.6,320.8L345.3,314.3L349.6,307.5z" /><path fill="white"  d="M329.6737039548153,301.7407083264275L329.7,301.7L325.9,307.2L321.7,312.3L317.2,317.2L312.3,321.7L307.2,325.9L301.7,329.7L296.1,333.1L290.1,336.1L284.0,338.7L277.8,340.8L271.4,342.6L264.9,343.8L258.3,344.6L251.7,345.0L245.0,344.9L238.4,344.3L231.9,343.3L225.4,341.8L219.1,339.8L212.9,337.4L206.9,334.6L201.1,331.4L195.5,327.8L190.2,323.8L185.2,319.5L180.5,314.8L176.2,309.8L172.2,304.5L168.6,298.9L165.4,293.1L162.6,287.1L160.2,280.9L158.2,274.6L156.7,268.1L155.7,261.6L155.1,255.0L155.0,248.3L155.4,241.7L156.2,235.1L157.4,228.6L159.2,222.2L161.3,216.0L163.9,209.9L166.9,203.9L170.3,198.3L174.1,192.8L178.3,187.7L182.8,182.8L187.7,178.3L192.8,174.1L198.3,170.3L203.9,166.9L209.9,163.9L216.0,161.3L222.2,159.2L228.6,157.4L235.1,156.2L241.7,155.4L248.3,155.0L255.0,155.1L261.6,155.7L268.1,156.7L274.6,158.2L280.9,160.2L287.1,162.6L293.1,165.4L298.9,168.6L304.5,172.2L309.8,176.2L314.8,180.5L319.5,185.2L323.8,190.2L327.8,195.5L342.3,190.1L342.3,190.1L337.8,183.8L333.0,177.8L327.8,172.2L322.2,167.0L316.2,162.2L309.9,157.7L303.3,153.8L296.5,150.3L289.4,147.3L282.2,144.8L274.7,142.8L267.2,141.4L259.6,140.4L251.9,140.0L244.2,140.2L236.6,140.8L229.0,142.0L221.5,143.7L214.2,146.0L207.0,148.7L200.1,152.0L193.3,155.7L186.9,159.9L180.8,164.5L175.0,169.6L169.6,175.0L164.5,180.8L159.9,186.9L155.7,193.3L152.0,200.1L148.7,207.0L146.0,214.2L143.7,221.5L142.0,229.0L140.8,236.6L140.2,244.2L140.0,251.9L140.4,259.6L141.4,267.2L142.8,274.7L144.8,282.2L147.3,289.4L150.3,296.5L153.8,303.3L157.7,309.9L162.2,316.2L167.0,322.2L172.2,327.8L177.8,333.0L183.8,337.8L190.1,342.3L196.7,346.2L203.5,349.7L210.6,352.7L217.8,355.2L225.3,357.2L232.8,358.6L240.4,359.6L248.1,360.0L255.8,359.8L263.4,359.2L271.0,358.0L278.5,356.3L285.8,354.0L293.0,351.3L299.9,348.0L306.7,344.3L313.1,340.1L319.2,335.5L325.0,330.4L330.4,325.0L335.5,319.2L340.1,313.1z" /><animate  attributeName="opacity" attributeType="XML" dur="13" values="0;0;1.0" keyTimes="0;0.81;1.0" fill="freeze" /></g></svg>
